<svg xmlns="http://www.w3.org/2000/svg" height="800" width="1200" overflow="visible" viewBox="-99.94365 -50.58375 866.1783 303.5025"><g clip-rule="evenodd" fill-rule="evenodd"><path d="M608.299 103.102c3.867-1.29 18.043-2.578 18.043-2.578l-3.867-14.176c-2.578-9.021-5.156-20.621-9.02-30.93v-1.29c0-1.288 6.441-25.774 6.441-25.774l2.578-9.021c1.289 0 1.289-2.578 1.289-3.867 0-3.867-2.578-10.311-11.598-12.89-10.313-1.288-19.332-2.575-30.934-1.288-15.465 1.289-29.641 9.023-37.371 21.91V1.288H393.076v15.467C382.763 5.155 367.299 0 349.256 1.288c-12.889 1.289-24.486 5.156-33.508 12.89 1.289-1.288 2.578-6.444 2.578-6.444l-12.889-2.578-11.597-2.58c-7.734-1.29-15.465-1.29-24.488-1.29-11.598 1.29-27.063 3.868-36.086 15.468-2.576 5.154-5.152 11.6-6.441 19.332 0-1.29-12.889-18.043-38.664-28.354-30.93-10.31-56.705-10.31-88.926 0-24.487 6.446-42.528 23.2-52.839 32.219-21.91-5.154-36.086-3.865-42.529 3.865C1.289 47.684 0 51.549 0 56.705c0 11.6 5.156 24.488 10.311 33.508-1.287 3.867-2.578 10.31-2.578 19.33v6.445c1.291 10.309 5.154 19.332 7.734 25.777-3.867 2.578-5.156 6.44-5.156 11.598 0 11.598 11.6 19.332 27.064 20.62 14.176 12.888 29.641 20.622 46.396 21.907 20.621 1.293 36.086-5.152 46.395-9.02l7.732-2.578c10.311-2.578 24.486-3.863 33.508-2.578 27.064 2.578 38.664 9.023 38.664 9.023l15.465 11.598 2.578-19.332 1.287-3.863c0-7.734-2.576-21.91-14.176-38.664-3.867-5.156-7.734-9.023-12.887-12.887 10.309-2.578 21.906-1.293 23.197-1.293v12.89h21.908v55.419h54.129v-55.418h12.887v55.418h123.723s2.574-11.602 2.574-14.176h7.734c1.289 2.574 3.867 14.176 3.867 14.176h175.27c.001 0-18.038-86.347-19.327-91.503zm-132.742 2.578h25.774c-1.289 5.152-7.734 32.219-10.309 45.105-3.868-11.597-12.887-39.953-15.465-45.105zm-74.75 37.37v-37.37h12.886c-1.289 5.152-7.73 21.91-12.886 37.37zM194.604 60.573c10.311-3.867 23.197-5.154 23.197-5.154s7.734-1.29 11.6-1.29c1.289 3.866 3.865 7.733 6.443 10.31 0 2.578-5.154 18.043-5.154 18.043s0 3.867-1.289 6.445c-5.156-6.445-10.311-12.887-16.754-18.043-5.157-3.867-11.6-7.733-18.043-10.311z" fill="#FFF"/><path d="M95.369 100.523c-6.443 1.289-6.443 9.02-5.154 19.332 1.289 11.598 5.154 19.332 11.598 18.043 6.445 0 6.445-9.023 5.156-19.332-1.289-10.31-3.867-18.043-11.6-18.043z" fill="#0065AD"/><path d="M228.113 113.41s-3.869-18.041-23.199-33.506c-18.043-12.89-37.375-11.6-37.375-11.6s5.156-10.311 19.332-18.043c12.889-6.445 30.93-7.73 30.93-7.73s-11.598-14.178-34.795-23.2c-28.354-10.31-51.551-10.31-79.904-1.288-30.932 10.31-52.84 34.797-52.84 34.797s-30.93-9.023-36.086-1.291c-6.443 7.736 9.023 37.377 9.023 37.377s-3.867 9.02-2.58 25.773c1.291 18.043 11.602 30.934 11.602 30.934-5.156 1.285-10.311 3.863-10.311 7.73 0 3.867 7.732 7.734 16.754 7.734h3.867c9.02 9.02 21.908 20.617 41.24 21.906 24.486 1.289 39.951-7.73 50.262-10.31 11.598-3.866 28.352-3.866 38.662-3.866 30.93 3.867 43.816 11.602 43.816 11.602s1.289-14.18-11.598-33.512c-10.311-14.176-30.932-19.328-30.932-19.328s10.311-9.023 23.199-11.602c16.756-3.862 30.933-2.577 30.933-2.577zM32.221 135.32c-2.578-5.156-3.867-10.31-5.156-25.777 0-7.73 2.578-16.75 6.443-18.041 5.156-1.29 5.156 7.734 7.734 15.467 0 2.574 2.576 6.44 3.865 10.309-1.289-1.29-1.289-1.29-1.289 0-3.865 0-5.154 7.734-2.576 16.754 1.289 5.156 3.865 10.313 6.443 11.602-2.578 0-5.154-1.29-9.021-1.29 0 0-1.289 0-1.289 1.29-1.289-2.583-3.867-6.446-5.154-10.314zm79.902 0c-6.443 12.887-16.754 16.754-28.352 16.754-11.602 0-19.332-6.441-30.932-5.156 2.58-2.574 2.58-9.02 1.289-16.754-1.289-1.29-1.289-2.574-2.578-5.152 3.869 2.578 6.445-1.29 6.445-1.29s1.287-19.331 7.732-32.22c5.154-10.31 12.887-18.043 24.486-19.33 10.311-2.578 18.043 5.154 21.908 16.754 3.867 11.597 5.158 33.508.002 46.394zM582.521 14.178c9.023-1.29 18.043-1.29 28.352 1.287-2.574 9.023-5.152 18.043-7.73 27.066-12.887-16.756-42.531 12.887-25.773 24.484 5.152 3.867 12.887 2.578 16.754-1.29 2.578-1.288 5.152-3.864 7.73-6.44 2.578 10.309 6.445 20.619 9.02 30.928-10.309 1.289-23.195 5.156-36.082 2.58-43.821-10.313-38.665-74.75 7.729-78.615zm-313.169 0c7.734-1.29 16.754 0 23.197 1.287 3.867 0 10.311 1.289 10.311 1.289-2.576 6.443-3.865 11.6-5.154 18.043-5.156 0-27.064-2.578-29.641 1.289v5.154c1.287 3.865 21.908 2.576 28.352 7.734 3.867 2.574 6.443 6.443 7.732 12.887 2.578 18.043-10.309 29.64-25.773 30.932-9.023 1.287-18.043 0-25.777 0-3.865 0-6.441-1.291-11.6-1.291 0 0 3.869-14.176 5.158-19.33 6.441 0 24.484 2.576 28.352-1.29 0-1.288 1.287-3.866 0-5.155-2.576-2.576-6.443-2.576-10.311-2.576-12.887-1.29-23.199-3.865-24.486-19.334-1.287-7.73 0-15.463 3.865-19.328 5.155-7.735 14.177-10.311 25.775-10.311zm136.611-1.289h32.219l20.621 42.529v-42.53h24.484V94.08l-33.508-1.287s-12.887-24.488-19.332-37.375V94.08s-16.754-1.287-24.484-1.287V12.889zm-12.887 25.773c-6.445-16.754-20.625-27.064-43.82-25.773-14.176 1.289-27.064 9.02-32.219 19.33-5.154 7.732-7.734 20.62-5.154 32.219 10.309 38.664 72.17 38.664 82.479-1.287 1.288-7.733 1.288-18.046-1.286-24.49zM369.877 52.84c-1.289 6.445-10.309 15.465-16.754 16.754-6.445 1.289-10.313 0-14.176-3.867-10.311-10.31 6.441-27.064 16.75-28.352 9.024-1.29 16.754 5.156 14.18 15.465zm161.094-39.951h-28.352v81.19h28.352zm-292.547 88.924h73.459v25.777h-23.197v54.125h-28.354V127.59h-21.908z" fill="#0065AD"/><path fill="#0065AD" d="M327.344 181.715h61.865v-20.617H356.99v-9.024h32.219v-20.621H356.99v-9.02h30.93v-20.62h-60.576zm134.037-79.902h-33.512l-27.063 79.902h27.063l3.867-12.887h25.773l3.871 12.887h27.063zm-16.758 42.53h-6.441l6.441-20.62 7.734 20.62zm109.547-6.445l-9.02-36.085h-30.933l-16.754 79.902h25.777l7.731-41.238 9.023 41.238h29.641l9.023-41.238 7.731 41.238h25.777l-16.758-79.902h-30.926z"/><path fill="#040506" d="M630.209 16.754v-3.865h14.172v3.865h-5.152v15.465h-3.868V16.754zm24.484-3.865l2.578 12.886 3.868-12.886h5.152v19.33h-3.867V16.754l-2.574 15.465h-3.868l-3.867-15.465v15.465h-3.867v-19.33z"/></g></svg>